<svg width="28" height="28" viewBox="0 0 28 28" fill="none" xmlns="http://www.w3.org/2000/svg">
<path fill-rule="evenodd" clip-rule="evenodd" d="M14.8195 27.0432L14.8043 27.0459L14.7058 27.0944L14.6781 27.1L14.6587 27.0944L14.5603 27.0459C14.5455 27.0413 14.5344 27.0436 14.527 27.0529L14.5215 27.0667L14.4979 27.6601L14.5048 27.6878L14.5187 27.7058L14.6629 27.8084L14.6837 27.814L14.7003 27.8084L14.8445 27.7058L14.8611 27.6836L14.8667 27.6601L14.8431 27.0681C14.8394 27.0533 14.8315 27.045 14.8195 27.0432ZM15.1869 26.8865L15.1689 26.8893L14.9124 27.0182L14.8985 27.0321L14.8944 27.0473L14.9193 27.6434L14.9263 27.6601L14.9374 27.6698L15.216 27.7987C15.2336 27.8033 15.247 27.7996 15.2562 27.7876L15.2618 27.7682L15.2146 26.917C15.21 26.9004 15.2008 26.8902 15.1869 26.8865ZM14.1957 26.8893C14.1896 26.8856 14.1823 26.8844 14.1753 26.8859C14.1683 26.8875 14.1622 26.8916 14.1582 26.8976L14.1499 26.917L14.1028 27.7682C14.1037 27.7849 14.1116 27.7959 14.1264 27.8015L14.1471 27.7987L14.4258 27.6698L14.4397 27.6587L14.4452 27.6434L14.4688 27.0473L14.4646 27.0307L14.4508 27.0168L14.1957 26.8893Z" fill="#393939"/>
<path fill-rule="evenodd" clip-rule="evenodd" d="M18.1608 0.344727C19.1922 0.344727 20.2819 0.705178 21.2801 1.10306L22.0107 1.40251C23.7575 2.13451 24.739 3.67059 25.5001 5.35778C26.7354 8.09582 27.5935 11.7461 27.8902 14.5216C28.0316 15.8386 28.0663 17.164 27.8126 18.0554C27.5395 19.0078 26.6106 19.6816 25.7081 20.2112L25.2617 20.4649L24.7986 20.7227C24.5583 20.8558 24.3157 20.987 24.0708 21.1164L23.3471 21.4908L22.3531 21.9857L21.5532 22.3794C21.3898 22.4675 21.2103 22.5219 21.0255 22.5394C20.8406 22.5568 20.6542 22.537 20.4771 22.481C20.3001 22.425 20.1362 22.334 19.995 22.2135C19.8538 22.0929 19.7382 21.9452 19.6552 21.7792C19.5722 21.6131 19.5233 21.4321 19.5116 21.2468C19.4999 21.0615 19.5255 20.8757 19.5869 20.7005C19.6483 20.5253 19.7443 20.3642 19.8692 20.2268C19.9941 20.0894 20.1452 19.9785 20.3138 19.9006L21.409 19.3599L20.6049 18.5156C18.6779 19.3059 16.4084 19.7537 13.9976 19.7537C11.5867 19.7537 9.31725 19.3073 7.39022 18.5156L6.58613 19.3585L7.68551 19.8992C7.84845 19.9806 7.99377 20.0933 8.11317 20.2308C8.23256 20.3684 8.3237 20.5281 8.38137 20.7008C8.43905 20.8736 8.46213 21.056 8.4493 21.2377C8.43647 21.4194 8.38798 21.5968 8.3066 21.7597C8.22522 21.9227 8.11254 22.068 7.975 22.1874C7.83746 22.3068 7.67775 22.3979 7.50499 22.4556C7.15608 22.572 6.77519 22.5451 6.44611 22.3808L5.69194 22.0065C5.13462 21.7292 4.57592 21.4547 4.02416 21.165L2.73762 20.4649L2.2926 20.2112C1.39009 19.6816 0.459845 19.0078 0.18812 18.0554C-0.0669693 17.164 -0.0309242 15.84 0.109097 14.5202C0.405777 11.7461 1.26393 8.09582 2.49917 5.35778C3.26028 3.67059 4.24181 2.13451 5.98862 1.40251C7.14761 0.91729 8.55198 0.344727 9.83852 0.344727C10.6745 0.344727 11.3316 1.11415 11.211 1.93487C12.1338 1.80009 13.065 1.73198 13.9976 1.73108C14.9555 1.73108 15.8913 1.8004 16.7897 1.93626C16.763 1.73938 16.7784 1.53907 16.8349 1.3486C16.8914 1.15812 16.9877 0.981814 17.1175 0.831352C17.2472 0.680891 17.4074 0.559704 17.5875 0.475814C17.7676 0.391923 17.9621 0.347241 18.1608 0.344727ZM9.49193 9.35602C8.84848 9.35602 8.23139 9.61162 7.77641 10.0666C7.32142 10.5216 7.06581 11.1387 7.06581 11.7821C7.06581 12.4256 7.32142 13.0427 7.77641 13.4977C8.23139 13.9526 8.84848 14.2082 9.49193 14.2082C10.1354 14.2082 10.7525 13.9526 11.2075 13.4977C11.6624 13.0427 11.918 12.4256 11.918 11.7821C11.918 11.1387 11.6624 10.5216 11.2075 10.0666C10.7525 9.61162 10.1354 9.35602 9.49193 9.35602ZM18.5032 9.35602C17.8598 9.35602 17.2427 9.61162 16.7877 10.0666C16.3327 10.5216 16.0771 11.1387 16.0771 11.7821C16.0771 12.4256 16.3327 13.0427 16.7877 13.4977C17.2427 13.9526 17.8598 14.2082 18.5032 14.2082C19.1467 14.2082 19.7638 13.9526 20.2187 13.4977C20.6737 13.0427 20.9293 12.4256 20.9293 11.7821C20.9293 11.1387 20.6737 10.5216 20.2187 10.0666C19.7638 9.61162 19.1467 9.35602 18.5032 9.35602Z" fill="#393939"/>
</svg>
