<svg width="22" height="22" viewBox="0 0 22 22" fill="none" xmlns="http://www.w3.org/2000/svg">
<rect width="2.40003" height="2.44451" transform="matrix(-1 0 0 1 17 4.88867)" fill="#484848"/>
<rect width="2.40003" height="2.44451" transform="matrix(-1 0 0 1 14.5996 2.44482)" fill="#484848"/>
<rect width="2.40003" height="2.44451" transform="matrix(-1 0 0 1 12.2002 2.44482)" fill="#484848"/>
<rect width="2.40003" height="2.44451" transform="matrix(-1 0 0 1 9.7998 2.44482)" fill="#484848"/>
<rect width="2.40003" height="2.44451" transform="matrix(-1 0 0 1 7.3999 4.88867)" fill="#484848"/>
<rect width="2.40003" height="2.44451" transform="matrix(-1 0 0 1 7.3999 7.3335)" fill="#484848"/>
<rect width="2.40003" height="2.44451" transform="matrix(-1 0 0 1 9.7998 9.77783)" fill="#484848"/>
<rect width="2.40003" height="2.44451" transform="matrix(-1 0 0 1 12.2002 9.77783)" fill="#484848"/>
<rect width="2.40003" height="2.44451" transform="matrix(-1 0 0 1 14.5996 9.77783)" fill="#484848"/>
<rect width="2.40003" height="2.44451" transform="matrix(-1 0 0 1 17 12.2222)" fill="#484848"/>
<rect width="2.40003" height="2.44451" transform="matrix(-1 0 0 1 17 14.6665)" fill="#484848"/>
<rect width="2.40003" height="2.44451" transform="matrix(-1 0 0 1 14.5996 17.1108)" fill="#484848"/>
<rect width="2.40003" height="2.44451" transform="matrix(-1 0 0 1 12.2002 17.1108)" fill="#484848"/>
<rect width="2.40003" height="2.44451" transform="matrix(-1 0 0 1 12.2002 19.5557)" fill="#484848"/>
<rect width="2.40003" height="2.44451" transform="matrix(-1 0 0 1 12.2002 19.5557)" fill="#484848"/>
<rect width="2.40003" height="2.44451" transform="matrix(-1 0 0 1 12.2002 0)" fill="#484848"/>
<rect width="2.40003" height="2.44451" transform="matrix(-1 0 0 1 9.7998 17.1108)" fill="#484848"/>
<rect width="2.40003" height="2.44451" transform="matrix(-1 0 0 1 7.3999 14.6665)" fill="#484848"/>
</svg>
