<svg width="33" height="26" viewBox="0 0 33 26" fill="none" xmlns="http://www.w3.org/2000/svg">
<path d="M28.875 0H4.125C3.03134 0.00117312 1.98281 0.437344 1.20948 1.21281C0.436143 1.98827 0.0011699 3.03969 0 4.13636V21.8636C0.0011699 22.9603 0.436143 24.0117 1.20948 24.7872C1.98281 25.5627 3.03134 25.9988 4.125 26H28.875C29.9687 25.9988 31.0172 25.5627 31.7905 24.7872C32.5639 24.0117 32.9988 22.9603 33 21.8636V4.13636C32.9988 3.03969 32.5639 1.98827 31.7905 1.21281C31.0172 0.437344 29.9687 0.00117312 28.875 0ZM27.8305 6.84199L17.2233 15.1147C17.0165 15.276 16.762 15.3635 16.5 15.3635C16.238 15.3635 15.9835 15.276 15.7767 15.1147L5.16951 6.84199C5.04489 6.74762 4.94021 6.62935 4.86156 6.49406C4.78291 6.35877 4.73186 6.20915 4.71138 6.05391C4.69089 5.89866 4.70138 5.74088 4.74223 5.58974C4.78308 5.43859 4.85348 5.2971 4.94934 5.17347C5.04519 5.04984 5.1646 4.94655 5.30061 4.8696C5.43662 4.79265 5.58653 4.74357 5.74162 4.72521C5.89671 4.70685 6.05389 4.71959 6.20403 4.76268C6.35418 4.80576 6.49428 4.87834 6.61621 4.97619L16.5 12.6846L26.3838 4.97619C26.6309 4.78904 26.9416 4.70695 27.2487 4.74769C27.5557 4.78843 27.8344 4.94872 28.0245 5.19389C28.2146 5.43906 28.3008 5.74941 28.2645 6.05782C28.2282 6.36624 28.0723 6.64793 27.8305 6.84199Z" fill="#393939"/>
</svg>
