<svg width="16" height="18" viewBox="0 0 16 18" fill="none" xmlns="http://www.w3.org/2000/svg">
<path d="M5.93 9.99C6.03 9.99 8.35 10.09 9.73 9.75H9.74C11.33 9.36 13.54 8.24 14.11 4.58C14.11 4.58 15.38 0 9.08 0H3.67C3.18 0 2.76 0.36 2.68 0.84L0.380004 15.4C0.330004 15.7 0.570003 15.98 0.870003 15.98H4.3L5.14 10.66C5.2 10.28 5.53 9.99 5.93 9.99Z" fill="#2E2E2E"/>
<path d="M14.99 5.28999C14.18 9.01999 11.63 10.99 7.57 10.99H6.10001L5.07001 17.51C5.03001 17.77 5.23001 18 5.49001 18H7.39001C7.73001 18 8.03001 17.75 8.08001 17.41C8.16001 17.01 8.6 14.09 8.69 13.59C8.74 13.25 9.04001 13 9.38001 13H9.82C12.64 13 14.85 11.85 15.5 8.53999C15.76 7.19999 15.62 6.09999 14.99 5.28999Z" fill="#2E2E2E"/>
</svg>
