<svg width="20" height="24" viewBox="0 0 20 24" fill="none" xmlns="http://www.w3.org/2000/svg">
<path d="M18.489 6.957C18.489 3.12 15.366 0 11.526 0H0V3.86H10.978C12.716 3.86 14.155 5.226 14.187 6.904C14.1961 7.31655 14.1221 7.72672 13.9696 8.11014C13.817 8.49356 13.589 8.84242 13.299 9.136C13.011 9.43138 12.6667 9.66591 12.2864 9.82566C11.906 9.98542 11.4975 10.0671 11.085 10.066H6.808C6.73515 10.0663 6.66535 10.0953 6.61384 10.1468C6.56232 10.1984 6.53326 10.2681 6.533 10.341V13.772C6.533 13.832 6.55033 13.886 6.585 13.934L13.841 24H19.152L11.879 13.906C15.542 13.722 18.489 10.646 18.489 6.957ZM4.47 5.923H0V24H4.47V5.923Z" fill="#2E2E2E"/>
</svg>
