<svg width="20" height="20" viewBox="0 0 20 20" fill="none" xmlns="http://www.w3.org/2000/svg">
<path d="M7.42136 0H12.5786L13.1703 2.94273C13.6601 3.16096 14.1259 3.42906 14.5602 3.74273L17.4214 2.78L20 7.22L17.7313 9.20182C17.7861 9.73255 17.7861 10.2675 17.7313 10.7982L19.9991 12.78L17.4214 17.22L14.5602 16.2582C14.1259 16.5715 13.6601 16.8393 13.1703 17.0573L12.5777 20H7.42136L6.82974 17.0573C6.33989 16.839 5.8741 16.5709 5.43983 16.2573L2.57864 17.22L0 12.78L2.26865 10.7982C2.21387 10.2675 2.21387 9.73255 2.26865 9.20182L0.000914454 7.22L2.57955 2.78L5.43983 3.74182C5.87414 3.42847 6.33993 3.16068 6.82974 2.94273L7.42136 0ZM8.92099 1.81818L8.42538 4.27727L7.94532 4.45273C7.3091 4.68626 6.71778 5.02632 6.19696 5.45818L5.80377 5.78455L3.41258 4.98L2.33358 6.83818L4.22824 8.49364L4.14137 8.99455C4.02758 9.66008 4.02758 10.3399 4.14137 11.0055L4.22824 11.5055L2.33266 13.1618L3.41167 15.02L5.80377 14.2155L6.19696 14.5418C6.71778 14.9737 7.3091 15.3137 7.94532 15.5473L8.42538 15.7227L8.92099 18.1818H11.079L11.5746 15.7227L12.0547 15.5473C12.6909 15.3137 13.2822 14.9737 13.803 14.5418L14.1962 14.2155L16.5883 15.02L17.6673 13.1618L15.7727 11.5064L15.8586 11.0055C15.9724 10.3399 15.9724 9.66008 15.8586 8.99455L15.7727 8.49455L17.6673 6.83818L16.5883 4.98L14.1962 5.78455L13.803 5.45818C13.2822 5.02632 12.6909 4.68626 12.0547 4.45273L11.5746 4.27727L11.079 1.81818H8.92099ZM10 7.27273C9.27245 7.27273 8.5747 7.56006 8.06024 8.07153C7.54578 8.58299 7.25677 9.27668 7.25677 10C7.25677 10.7233 7.54578 11.417 8.06024 11.9285C8.5747 12.4399 9.27245 12.7273 10 12.7273C10.7275 12.7273 11.4253 12.4399 11.9398 11.9285C12.4542 11.417 12.7432 10.7233 12.7432 10C12.7432 9.27668 12.4542 8.58299 11.9398 8.07153C11.4253 7.56006 10.7275 7.27273 10 7.27273ZM5.42794 10C5.42794 8.79447 5.90964 7.63832 6.76707 6.78588C7.62449 5.93344 8.78741 5.45455 10 5.45455C11.2126 5.45455 12.3755 5.93344 13.2329 6.78588C14.0904 7.63832 14.5721 8.79447 14.5721 10C14.5721 11.2055 14.0904 12.3617 13.2329 13.2141C12.3755 14.0666 11.2126 14.5455 10 14.5455C8.78741 14.5455 7.62449 14.0666 6.76707 13.2141C5.90964 12.3617 5.42794 11.2055 5.42794 10Z" fill="#2E2E2E"/>
</svg>
