<svg width="32" height="32" viewBox="0 0 32 32" fill="none" xmlns="http://www.w3.org/2000/svg">
<path d="M4 0H28C30.2071 0 32 1.79286 32 4V28C32 30.2071 30.2071 32 28 32H4C1.79286 32 0 30.2071 0 28V4C0 1.79286 1.79286 0 4 0ZM19.35 17.3C19.8214 13.5214 21.2 12.3357 23.0214 12.3357C24.8286 12.3357 26.2286 13.7786 26.2286 15.8857C26.2286 17.9929 24.8214 19.4357 23.0214 19.4357C21.0286 19.4357 19.7143 17.9 19.35 17.3ZM17.4429 14.3143C16.8571 13.2071 16.4214 11.7214 16.0714 10.3429H11.5786V15.9214C11.5786 17.95 10.6571 19.45 8.85 19.45C7.04286 19.45 6.00714 17.9571 6.00714 15.9286L6.02857 10.35H3.44286V15.9286C3.44286 17.5571 3.97143 19.0357 4.93571 20.0857C5.92857 21.1714 7.27857 21.7429 8.85 21.7429C11.9714 21.7429 14.15 19.35 14.15 15.9214V12.1714C14.4786 13.4071 15.25 15.7786 16.7357 17.8643L15.3571 25.7571H17.9857L18.9 20.1571C19.2 20.4071 19.5214 20.6286 19.8571 20.8286C20.7357 21.3857 21.7429 21.7 22.7786 21.7286H23.0214C26.2429 21.7286 28.8 19.2357 28.8 15.8786C28.8 12.5214 26.2357 10.0071 23.0214 10.0071C19.7786 10.0071 17.9571 12.1286 17.4429 14.3V14.3143Z" fill="#2E2E2E"/>
</svg>
