<svg width="27" height="31" viewBox="0 0 27 31" fill="none" xmlns="http://www.w3.org/2000/svg">
<path d="M6.68307 6.49189C6.33932 5.61464 6.35307 4.61226 6.5057 3.69514C7.55614 4.01078 8.54285 4.50879 9.4207 5.16639C9.8057 5.46064 10.3103 5.55551 10.7806 5.41389C11.9871 5.05202 13.2404 4.87039 14.4999 4.87489C15.8213 4.87489 17.0767 5.06739 18.2166 5.41251C18.6868 5.55551 19.1914 5.45926 19.5751 5.16501C20.4525 4.50756 21.4387 4.00955 22.4887 3.69376C22.6413 4.61089 22.6537 5.61326 22.3127 6.48914C22.1064 7.01714 22.2096 7.62489 22.5987 8.05664C23.5942 9.16076 24.1249 10.4299 24.1249 11.7499C24.1249 14.6566 21.4162 17.507 17.0657 18.3746C15.9767 18.5919 15.5518 19.9628 16.3851 20.7479C16.9199 21.2511 17.2499 21.9606 17.2499 22.7499V26.8749C17.2499 27.2396 17.3948 27.5893 17.6527 27.8472C17.9105 28.105 18.2603 28.2499 18.6249 28.2499C18.9896 28.2499 19.3394 28.105 19.5972 27.8472C19.8551 27.5893 19.9999 27.2396 19.9999 26.8749V22.7499C19.9999 21.9661 19.8349 21.2209 19.5407 20.5458C23.6891 19.1061 26.8749 15.8653 26.8749 11.7499C26.8749 9.89776 26.2094 8.19551 25.1053 6.76964C25.3941 5.64214 25.3679 4.50639 25.2579 3.63464C25.1603 2.85364 25.0242 1.83064 24.4742 1.22014C23.6561 0.314012 22.3017 0.847512 21.3392 1.17614C20.3062 1.52431 19.3237 2.00745 18.4173 2.61301C17.1373 2.28587 15.8211 2.12186 14.4999 2.12489C13.1332 2.12489 11.8146 2.29676 10.5798 2.61439C9.6734 2.00883 8.69094 1.52569 7.65795 1.17751C6.69545 0.847513 5.3397 0.314012 4.52157 1.22014C3.96057 1.84164 3.8437 2.78351 3.74332 3.58376L3.73645 3.63601C3.62645 4.50914 3.6017 5.64626 3.89045 6.77514C2.79045 8.19964 2.12495 9.89914 2.12495 11.7499C2.12495 15.8639 5.31082 19.1061 9.4592 20.5458C9.15945 21.2324 9.00318 21.9731 8.99995 22.7224L8.76895 22.7691C7.78307 22.9053 7.15195 22.7829 6.72295 22.6014C5.67795 22.1586 5.13895 21.0435 4.4817 20.191C4.07195 19.6616 3.4752 19.0003 2.55945 18.695C2.38809 18.638 2.20717 18.6152 2.02702 18.6281C1.84687 18.6409 1.67102 18.6891 1.5095 18.77C1.1833 18.9332 0.935311 19.2193 0.820074 19.5654C0.704838 19.9115 0.731798 20.2891 0.895025 20.6153C1.05825 20.9415 1.34437 21.1895 1.69045 21.3048C2.4577 21.5605 2.98845 22.875 3.4752 23.458C3.98807 24.074 4.67007 24.7175 5.6477 25.1328C6.58545 25.5315 7.68682 25.6731 8.99995 25.5123V26.8749C8.99995 27.2396 9.14482 27.5893 9.40268 27.8472C9.66054 28.105 10.0103 28.2499 10.3749 28.2499C10.7396 28.2499 11.0894 28.105 11.3472 27.8472C11.6051 27.5893 11.7499 27.2396 11.7499 26.8749V22.7499C11.7499 21.9606 12.0799 21.2511 12.6148 20.7479C13.4494 19.9614 13.0232 18.5919 11.9342 18.3746C7.58232 17.507 4.87495 14.6566 4.87495 11.7499C4.87495 10.4326 5.40432 9.16351 6.39845 8.05939C6.78757 7.62764 6.88932 7.01989 6.68307 6.49189Z" fill="#2E2E2E"/>
</svg>
